<mxfile host="Electron" modified="2024-07-01T18:09:46.816Z" agent="Mozilla/5.0 (X11; Linux x86_64) AppleWebKit/537.36 (KHTML, like Gecko) draw.io/24.6.4 Chrome/124.0.6367.207 Electron/30.0.6 Safari/537.36" etag="EL9KSLW2xYbEOfMoq56y" version="24.6.4" type="device">
  <diagram name="Page-1" id="2iBIKRvF6-2OgQik69dd">
    <mxGraphModel dx="880" dy="523" grid="1" gridSize="10" guides="1" tooltips="1" connect="1" arrows="1" fold="1" page="1" pageScale="1" pageWidth="850" pageHeight="1100" math="0" shadow="0">
      <root>
        <mxCell id="0" />
        <mxCell id="1" parent="0" />
        <mxCell id="AJ9vyiV2loF1kRLwpyiG-1" value="server" style="rhombus;whiteSpace=wrap;html=1;fillColor=#f8cecc;strokeColor=#b85450;" vertex="1" parent="1">
          <mxGeometry x="250" y="610" width="80" height="80" as="geometry" />
        </mxCell>
        <mxCell id="AJ9vyiV2loF1kRLwpyiG-2" value="door_sensor" style="strokeWidth=2;html=1;shape=mxgraph.flowchart.delay;whiteSpace=wrap;fillColor=#fff2cc;strokeColor=#d6b656;" vertex="1" parent="1">
          <mxGeometry x="580" y="500" width="100" height="60" as="geometry" />
        </mxCell>
        <mxCell id="AJ9vyiV2loF1kRLwpyiG-3" value="fire_sensor" style="strokeWidth=2;html=1;shape=mxgraph.flowchart.delay;whiteSpace=wrap;fillColor=#fff2cc;strokeColor=#d6b656;" vertex="1" parent="1">
          <mxGeometry x="600" y="580" width="100" height="60" as="geometry" />
        </mxCell>
        <mxCell id="AJ9vyiV2loF1kRLwpyiG-4" value="pir_sensor" style="strokeWidth=2;html=1;shape=mxgraph.flowchart.delay;whiteSpace=wrap;fillColor=#fff2cc;strokeColor=#d6b656;" vertex="1" parent="1">
          <mxGeometry x="550" y="660" width="100" height="60" as="geometry" />
        </mxCell>
        <mxCell id="AJ9vyiV2loF1kRLwpyiG-5" value="tem/hum_sensor" style="strokeWidth=2;html=1;shape=mxgraph.flowchart.delay;whiteSpace=wrap;fillColor=#fff2cc;strokeColor=#d6b656;" vertex="1" parent="1">
          <mxGeometry x="520" y="750" width="100" height="60" as="geometry" />
        </mxCell>
        <mxCell id="AJ9vyiV2loF1kRLwpyiG-10" value="sqlite" style="shape=cylinder3;whiteSpace=wrap;html=1;boundedLbl=1;backgroundOutline=1;size=15;fillColor=#dae8fc;strokeColor=#6c8ebf;" vertex="1" parent="1">
          <mxGeometry x="70" y="720" width="60" height="80" as="geometry" />
        </mxCell>
        <mxCell id="AJ9vyiV2loF1kRLwpyiG-11" style="edgeStyle=orthogonalEdgeStyle;rounded=0;orthogonalLoop=1;jettySize=auto;html=1;exitX=0;exitY=0.5;exitDx=0;exitDy=0;entryX=1;entryY=1;entryDx=0;entryDy=-15;entryPerimeter=0;" edge="1" parent="1" source="AJ9vyiV2loF1kRLwpyiG-1" target="AJ9vyiV2loF1kRLwpyiG-10">
          <mxGeometry relative="1" as="geometry" />
        </mxCell>
        <mxCell id="AJ9vyiV2loF1kRLwpyiG-20" style="edgeStyle=orthogonalEdgeStyle;rounded=0;orthogonalLoop=1;jettySize=auto;html=1;exitX=0;exitY=0.5;exitDx=0;exitDy=0;entryX=1;entryY=0.5;entryDx=0;entryDy=0;" edge="1" parent="1" source="AJ9vyiV2loF1kRLwpyiG-18" target="AJ9vyiV2loF1kRLwpyiG-1">
          <mxGeometry relative="1" as="geometry" />
        </mxCell>
        <mxCell id="AJ9vyiV2loF1kRLwpyiG-18" value="login" style="rounded=1;whiteSpace=wrap;html=1;fillColor=#e1d5e7;strokeColor=#9673a6;" vertex="1" parent="1">
          <mxGeometry x="365" y="620" width="120" height="60" as="geometry" />
        </mxCell>
        <mxCell id="AJ9vyiV2loF1kRLwpyiG-24" style="edgeStyle=orthogonalEdgeStyle;rounded=0;orthogonalLoop=1;jettySize=auto;html=1;exitX=1;exitY=1;exitDx=0;exitDy=0;entryX=0;entryY=0.5;entryDx=0;entryDy=0;entryPerimeter=0;" edge="1" parent="1" source="AJ9vyiV2loF1kRLwpyiG-18" target="AJ9vyiV2loF1kRLwpyiG-5">
          <mxGeometry relative="1" as="geometry" />
        </mxCell>
        <mxCell id="AJ9vyiV2loF1kRLwpyiG-25" style="edgeStyle=orthogonalEdgeStyle;rounded=0;orthogonalLoop=1;jettySize=auto;html=1;exitX=1;exitY=0.75;exitDx=0;exitDy=0;entryX=0;entryY=0.5;entryDx=0;entryDy=0;entryPerimeter=0;" edge="1" parent="1" source="AJ9vyiV2loF1kRLwpyiG-18" target="AJ9vyiV2loF1kRLwpyiG-4">
          <mxGeometry relative="1" as="geometry" />
        </mxCell>
        <mxCell id="AJ9vyiV2loF1kRLwpyiG-26" style="edgeStyle=orthogonalEdgeStyle;rounded=0;orthogonalLoop=1;jettySize=auto;html=1;exitX=1;exitY=0.5;exitDx=0;exitDy=0;entryX=0;entryY=0.5;entryDx=0;entryDy=0;entryPerimeter=0;" edge="1" parent="1" source="AJ9vyiV2loF1kRLwpyiG-18" target="AJ9vyiV2loF1kRLwpyiG-3">
          <mxGeometry relative="1" as="geometry" />
        </mxCell>
        <mxCell id="AJ9vyiV2loF1kRLwpyiG-30" style="edgeStyle=orthogonalEdgeStyle;rounded=0;orthogonalLoop=1;jettySize=auto;html=1;exitX=1;exitY=0.25;exitDx=0;exitDy=0;entryX=0;entryY=0.5;entryDx=0;entryDy=0;entryPerimeter=0;" edge="1" parent="1" source="AJ9vyiV2loF1kRLwpyiG-18" target="AJ9vyiV2loF1kRLwpyiG-2">
          <mxGeometry relative="1" as="geometry" />
        </mxCell>
        <mxCell id="AJ9vyiV2loF1kRLwpyiG-31" value="change_phone" style="strokeWidth=2;html=1;shape=mxgraph.flowchart.delay;whiteSpace=wrap;fillColor=#fff2cc;strokeColor=#d6b656;" vertex="1" parent="1">
          <mxGeometry x="580" y="420" width="100" height="60" as="geometry" />
        </mxCell>
        <mxCell id="AJ9vyiV2loF1kRLwpyiG-32" style="edgeStyle=orthogonalEdgeStyle;rounded=0;orthogonalLoop=1;jettySize=auto;html=1;exitX=1;exitY=0;exitDx=0;exitDy=0;entryX=0;entryY=0.5;entryDx=0;entryDy=0;entryPerimeter=0;" edge="1" parent="1" source="AJ9vyiV2loF1kRLwpyiG-18" target="AJ9vyiV2loF1kRLwpyiG-31">
          <mxGeometry relative="1" as="geometry" />
        </mxCell>
      </root>
    </mxGraphModel>
  </diagram>
</mxfile>
